<svg width="27" height="27" viewBox="0 0 27 27" fill="none" xmlns="http://www.w3.org/2000/svg">
<path d="M13.5 0C17.0804 0 20.5142 1.42232 23.0459 3.95406C25.5777 6.4858 27 9.91958 27 13.5C27 17.0804 25.5777 20.5142 23.0459 23.0459C20.5142 25.5777 17.0804 27 13.5 27C9.91958 27 6.4858 25.5777 3.95406 23.0459C1.42232 20.5142 0 17.0804 0 13.5C0 9.91958 1.42232 6.4858 3.95406 3.95406C6.4858 1.42232 9.91958 0 13.5 0ZM2.53125 13.5C2.53125 16.4091 3.68688 19.199 5.74392 21.2561C7.80096 23.3131 10.5909 24.4688 13.5 24.4688C16.4091 24.4688 19.199 23.3131 21.2561 21.2561C23.3131 19.199 24.4688 16.4091 24.4688 13.5C24.4688 10.5909 23.3131 7.80096 21.2561 5.74392C19.199 3.68688 16.4091 2.53125 13.5 2.53125C10.5909 2.53125 7.80096 3.68688 5.74392 5.74392C3.68688 7.80096 2.53125 10.5909 2.53125 13.5ZM10.7646 8.82056L17.9601 13.1389C18.0222 13.1764 18.0737 13.2294 18.1094 13.2927C18.1451 13.3559 18.1638 13.4274 18.1638 13.5C18.1638 13.5726 18.1451 13.6441 18.1094 13.7073C18.0737 13.7706 18.0222 13.8236 17.9601 13.8611L10.7646 18.1794C10.7006 18.218 10.6275 18.2388 10.5528 18.2399C10.4781 18.2409 10.4045 18.2222 10.3394 18.1854C10.2744 18.1487 10.2203 18.0954 10.1826 18.0309C10.1449 17.9664 10.125 17.893 10.125 17.8183V9.18337C10.1247 9.10853 10.1444 9.03497 10.182 8.97024C10.2195 8.9055 10.2736 8.85192 10.3387 8.81499C10.4038 8.77806 10.4776 8.75912 10.5524 8.7601C10.6272 8.76108 10.7005 8.78194 10.7646 8.82056Z" fill="white"/>
</svg>
