<svg width="260" height="21" viewBox="0 0 260 21" fill="none" xmlns="http://www.w3.org/2000/svg">
<path d="M17 7.28571V13.5714M20.1429 4.14286V18.2857M23.2857 8.85714V12M26.4286 5.71429V16.422M29.5714 1V19.8571" stroke="white" stroke-linecap="round" stroke-linejoin="round"/>
<path d="M1 7.28571V13.5714M4.14286 4.14286V18.2857M7.28571 8.85714V12M10.4286 5.71429V16.422M13.5714 1V19.8571" stroke="white" stroke-linecap="round" stroke-linejoin="round"/>
<path d="M48.7857 7.28571V13.5714M51.9286 4.14286V18.2857M55.0714 8.85714V12M58.2143 5.71429V16.422M61.3571 1V19.8571" stroke="white" stroke-linecap="round" stroke-linejoin="round"/>
<path d="M32.7857 7.28571V13.5714M35.9286 4.14286V18.2857M39.0714 8.85714V12M42.2143 5.71429V16.422M45.3571 1V19.8571" stroke="white" stroke-linecap="round" stroke-linejoin="round"/>
<path d="M17 7.28571V13.5714M20.1429 4.14286V18.2857M23.2857 8.85714V12M26.4286 5.71429V16.422M29.5714 1V19.8571" stroke="white" stroke-linecap="round" stroke-linejoin="round"/>
<path d="M1 7.28571V13.5714M4.14286 4.14286V18.2857M7.28571 8.85714V12M10.4286 5.71429V16.422M13.5714 1V19.8571" stroke="white" stroke-linecap="round" stroke-linejoin="round"/>
<path d="M80.7857 7.28571V13.5714M83.9286 4.14286V18.2857M87.0714 8.85714V12M90.2143 5.71429V16.422M93.3571 1V19.8571" stroke="white" stroke-linecap="round" stroke-linejoin="round"/>
<path d="M64.7857 7.28571V13.5714M67.9286 4.14286V18.2857M71.0714 8.85714V12M74.2143 5.71429V16.422M77.3571 1V19.8571" stroke="white" stroke-linecap="round" stroke-linejoin="round"/>
<path d="M112.571 7.28571V13.5714M115.714 4.14286V18.2857M118.857 8.85714V12M122 5.71429V16.422M125.143 1V19.8571" stroke="white" stroke-linecap="round" stroke-linejoin="round"/>
<path d="M96.5714 7.28571V13.5714M99.7143 4.14286V18.2857M102.857 8.85714V12M106 5.71429V16.422M109.143 1V19.8571" stroke="white" stroke-linecap="round" stroke-linejoin="round"/>
<path d="M80.7857 7.28571V13.5714M83.9286 4.14286V18.2857M87.0714 8.85714V12M90.2143 5.71429V16.422M93.3571 1V19.8571" stroke="white" stroke-linecap="round" stroke-linejoin="round"/>
<path d="M64.7857 7.28571V13.5714M67.9286 4.14286V18.2857M71.0714 8.85714V12M74.2143 5.71429V16.422M77.3571 1V19.8571" stroke="white" stroke-linecap="round" stroke-linejoin="round"/>
<path d="M109.786 7.28571V13.5714M112.929 4.14286V18.2857M116.071 8.85714V12M119.214 5.71429V16.422M122.357 1V19.8571" stroke="white" stroke-linecap="round" stroke-linejoin="round"/>
<path d="M93.7857 7.28571V13.5714M96.9286 4.14286V18.2857M100.071 8.85714V12M103.214 5.71429V16.422M106.357 1V19.8571" stroke="white" stroke-linecap="round" stroke-linejoin="round"/>
<path d="M141.571 7.28571V13.5714M144.714 4.14286V18.2857M147.857 8.85714V12M151 5.71429V16.422M154.143 1V19.8571" stroke="white" stroke-linecap="round" stroke-linejoin="round"/>
<path d="M125.571 7.28571V13.5714M128.714 4.14286V18.2857M131.857 8.85714V12M135 5.71429V16.422M138.143 1V19.8571" stroke="white" stroke-linecap="round" stroke-linejoin="round"/>
<path d="M109.786 7.28571V13.5714M112.929 4.14286V18.2857M116.071 8.85714V12M119.214 5.71429V16.422M122.357 1V19.8571" stroke="white" stroke-linecap="round" stroke-linejoin="round"/>
<path d="M93.7857 7.28571V13.5714M96.9286 4.14286V18.2857M100.071 8.85714V12M103.214 5.71429V16.422M106.357 1V19.8571" stroke="white" stroke-linecap="round" stroke-linejoin="round"/>
<path d="M173.571 7.28571V13.5714M176.714 4.14286V18.2857M179.857 8.85714V12M183 5.71429V16.422M186.143 1V19.8571" stroke="white" stroke-linecap="round" stroke-linejoin="round"/>
<path d="M157.571 7.28571V13.5714M160.714 4.14286V18.2857M163.857 8.85714V12M167 5.71429V16.422M170.143 1V19.8571" stroke="white" stroke-linecap="round" stroke-linejoin="round"/>
<path d="M205.357 7.28571V13.5714M208.5 4.14286V18.2857M211.643 8.85714V12M214.786 5.71429V16.422M217.929 1V19.8571" stroke="white" stroke-linecap="round" stroke-linejoin="round"/>
<path d="M219 7.28571V13.5714M222.143 4.14286V18.2857M225.286 8.85714V12M228.429 5.71429V16.422M231.571 1V19.8571" stroke="white" stroke-linecap="round" stroke-linejoin="round"/>
<path d="M232 7.28571V13.5714M235.143 4.14286V18.2857M238.286 8.85714V12M241.429 5.71429V16.422M244.571 1V19.8571" stroke="white" stroke-linecap="round" stroke-linejoin="round"/>
<path d="M246 7.28571V13.5714M249.143 4.14286V18.2857M252.286 8.85714V12M255.429 5.71429V16.422M258.571 1V19.8571" stroke="white" stroke-linecap="round" stroke-linejoin="round"/>
<path d="M189.357 7.28571V13.5714M192.5 4.14286V18.2857M195.643 8.85714V12M198.786 5.71429V16.422M201.929 1V19.8571" stroke="white" stroke-linecap="round" stroke-linejoin="round"/>
<path d="M173.571 7.28571V13.5714M176.714 4.14286V18.2857M179.857 8.85714V12M183 5.71429V16.422M186.143 1V19.8571" stroke="white" stroke-linecap="round" stroke-linejoin="round"/>
<path d="M157.571 7.28571V13.5714M160.714 4.14286V18.2857M163.857 8.85714V12M167 5.71429V16.422M170.143 1V19.8571" stroke="white" stroke-linecap="round" stroke-linejoin="round"/>
</svg>
